<?xml version="1.0" encoding="UTF-8" standalone="no"?>
<!-- This is a Stata 16.1 generated SVG file (http://www.stata.com) -->

<svg version="1.1" width="5.50in" height="4.00in" viewBox="0 0 3960 2880" xmlns="http://www.w3.org/2000/svg" xmlns:xlink="http://www.w3.org/1999/xlink">
	<desc>Stata Graph - Graph</desc>
	<rect x="0" y="0" width="3960" height="2880" style="fill:#EAF2F3;stroke:none"/>
	<rect x="0.00" y="0.00" width="3959.88" height="2880.00" style="fill:#EAF2F3"/>
	<rect x="2.88" y="2.88" width="3954.12" height="2874.24" style="fill:none;stroke:#EAF2F3;stroke-width:5.76"/>
	<rect x="379.29" y="250.97" width="1102.37" height="503.43" style="fill:#FFFFFF"/>
	<rect x="381.60" y="253.28" width="1097.76" height="498.82" style="fill:none;stroke:#FFFFFF;stroke-width:4.61"/>
	<line x1="379.29" y1="703.66" x2="1481.66" y2="703.66" style="stroke:#EAF2F3;stroke-width:6.91"/>
	<line x1="379.29" y1="502.69" x2="1481.66" y2="502.69" style="stroke:#EAF2F3;stroke-width:6.91"/>
	<line x1="379.29" y1="301.71" x2="1481.66" y2="301.71" style="stroke:#EAF2F3;stroke-width:6.91"/>
	<rect x="1550.84" y="250.97" width="1102.24" height="503.43" style="fill:#FFFFFF"/>
	<rect x="1553.14" y="253.28" width="1097.63" height="498.82" style="fill:none;stroke:#FFFFFF;stroke-width:4.61"/>
	<line x1="1550.84" y1="703.66" x2="2653.08" y2="703.66" style="stroke:#EAF2F3;stroke-width:6.91"/>
	<line x1="1550.84" y1="502.69" x2="2653.08" y2="502.69" style="stroke:#EAF2F3;stroke-width:6.91"/>
	<line x1="1550.84" y1="301.71" x2="2653.08" y2="301.71" style="stroke:#EAF2F3;stroke-width:6.91"/>
	<rect x="2722.25" y="250.97" width="1102.24" height="503.43" style="fill:#FFFFFF"/>
	<rect x="2724.56" y="253.28" width="1097.63" height="498.82" style="fill:none;stroke:#FFFFFF;stroke-width:4.61"/>
	<line x1="2722.25" y1="703.66" x2="3824.49" y2="703.66" style="stroke:#EAF2F3;stroke-width:6.91"/>
	<line x1="2722.25" y1="502.69" x2="3824.49" y2="502.69" style="stroke:#EAF2F3;stroke-width:6.91"/>
	<line x1="2722.25" y1="301.71" x2="3824.49" y2="301.71" style="stroke:#EAF2F3;stroke-width:6.91"/>
	<rect x="379.29" y="939.17" width="1102.37" height="503.31" style="fill:#FFFFFF"/>
	<rect x="381.60" y="941.47" width="1097.76" height="498.70" style="fill:none;stroke:#FFFFFF;stroke-width:4.61"/>
	<line x1="379.29" y1="1391.74" x2="1481.66" y2="1391.74" style="stroke:#EAF2F3;stroke-width:6.91"/>
	<line x1="379.29" y1="1190.76" x2="1481.66" y2="1190.76" style="stroke:#EAF2F3;stroke-width:6.91"/>
	<line x1="379.29" y1="989.78" x2="1481.66" y2="989.78" style="stroke:#EAF2F3;stroke-width:6.91"/>
	<rect x="1550.84" y="939.17" width="1102.24" height="503.31" style="fill:#FFFFFF"/>
	<rect x="1553.14" y="941.47" width="1097.63" height="498.70" style="fill:none;stroke:#FFFFFF;stroke-width:4.61"/>
	<line x1="1550.84" y1="1391.74" x2="2653.08" y2="1391.74" style="stroke:#EAF2F3;stroke-width:6.91"/>
	<line x1="1550.84" y1="1190.76" x2="2653.08" y2="1190.76" style="stroke:#EAF2F3;stroke-width:6.91"/>
	<line x1="1550.84" y1="989.78" x2="2653.08" y2="989.78" style="stroke:#EAF2F3;stroke-width:6.91"/>
	<rect x="2722.25" y="939.17" width="1102.24" height="503.31" style="fill:#FFFFFF"/>
	<rect x="2724.56" y="941.47" width="1097.63" height="498.70" style="fill:none;stroke:#FFFFFF;stroke-width:4.61"/>
	<line x1="2722.25" y1="1391.74" x2="3824.49" y2="1391.74" style="stroke:#EAF2F3;stroke-width:6.91"/>
	<line x1="2722.25" y1="1190.76" x2="3824.49" y2="1190.76" style="stroke:#EAF2F3;stroke-width:6.91"/>
	<line x1="2722.25" y1="989.78" x2="3824.49" y2="989.78" style="stroke:#EAF2F3;stroke-width:6.91"/>
	<rect x="379.29" y="1627.24" width="1102.37" height="503.31" style="fill:#FFFFFF"/>
	<rect x="381.60" y="1629.54" width="1097.76" height="498.70" style="fill:none;stroke:#FFFFFF;stroke-width:4.61"/>
	<line x1="379.29" y1="2079.93" x2="1481.66" y2="2079.93" style="stroke:#EAF2F3;stroke-width:6.91"/>
	<line x1="379.29" y1="1878.95" x2="1481.66" y2="1878.95" style="stroke:#EAF2F3;stroke-width:6.91"/>
	<line x1="379.29" y1="1677.98" x2="1481.66" y2="1677.98" style="stroke:#EAF2F3;stroke-width:6.91"/>
	<rect x="1550.84" y="1627.24" width="1102.24" height="503.31" style="fill:#FFFFFF"/>
	<rect x="1553.14" y="1629.54" width="1097.63" height="498.70" style="fill:none;stroke:#FFFFFF;stroke-width:4.61"/>
	<line x1="1550.84" y1="2079.93" x2="2653.08" y2="2079.93" style="stroke:#EAF2F3;stroke-width:6.91"/>
	<line x1="1550.84" y1="1878.95" x2="2653.08" y2="1878.95" style="stroke:#EAF2F3;stroke-width:6.91"/>
	<line x1="1550.84" y1="1677.98" x2="2653.08" y2="1677.98" style="stroke:#EAF2F3;stroke-width:6.91"/>
	<rect x="2722.25" y="1627.24" width="1102.24" height="503.31" style="fill:#FFFFFF"/>
	<rect x="2724.56" y="1629.54" width="1097.63" height="498.70" style="fill:none;stroke:#FFFFFF;stroke-width:4.61"/>
	<line x1="2722.25" y1="2079.93" x2="3824.49" y2="2079.93" style="stroke:#EAF2F3;stroke-width:6.91"/>
	<line x1="2722.25" y1="1878.95" x2="3824.49" y2="1878.95" style="stroke:#EAF2F3;stroke-width:6.91"/>
	<line x1="2722.25" y1="1677.98" x2="3824.49" y2="1677.98" style="stroke:#EAF2F3;stroke-width:6.91"/>
	<path d=" M429.91 626.57 L541.16 577.06 L652.41 511.97 L763.66 423.61 L874.79 380.17 L986.04 355.17 L1097.29 341.19 L1208.42 334.26 L1319.67 324.24 L1430.92 317.43" stroke-linejoin="round" style="fill:none;stroke:#1A476F;stroke-width:6.91"/>
	<path d=" M429.91 621.49 L541.16 572.36 L652.41 505.29 L763.66 418.16 L874.79 375.72 L986.04 352.82 L1097.29 339.46 L1208.42 333.27" stroke-linejoin="round" style="fill:none;stroke:#90353B;stroke-width:6.91"/>
	<path d=" M1601.45 691.66 L1712.58 686.46 L1823.83 669.14 L1935.08 644.63 L2046.21 598.47 L2157.46 493.90 L2268.71 437.22 L2379.96 396.63 L2491.09 377.33 L2602.34 356.78" stroke-linejoin="round" style="fill:none;stroke:#1A476F;stroke-width:6.91"/>
	<path d=" M1601.45 693.02 L1712.58 685.72 L1823.83 667.78 L1935.08 646.49 L2046.21 603.05 L2157.46 492.29 L2268.71 438.21 L2379.96 389.70" stroke-linejoin="round" style="fill:none;stroke:#90353B;stroke-width:6.91"/>
	<path d=" M2772.87 620.13 L2883.99 561.84 L2995.24 499.10 L3106.50 427.57 L3217.75 382.89 L3328.88 350.84 L3440.13 335.87 L3551.38 323.86 L3662.51 320.65 L3773.76 313.47" stroke-linejoin="round" style="fill:none;stroke:#1A476F;stroke-width:6.91"/>
	<path d=" M2772.87 646.99 L2883.99 605.90 L2995.24 554.17 L3106.50 478.06 L3217.75 403.07 L3328.88 367.92 L3440.13 345.03 L3551.38 327.82" stroke-linejoin="round" style="fill:none;stroke:#90353B;stroke-width:6.91"/>
	<path d=" M429.91 1383.82 L541.16 1373.30 L652.41 1351.64 L763.66 1318.72 L874.79 1256.35 L986.04 1211.80 L1097.29 1155.12 L1208.42 1107.23 L1319.67 1065.40 L1430.92 1046.09" stroke-linejoin="round" style="fill:none;stroke:#1A476F;stroke-width:6.91"/>
	<path d=" M429.91 1382.83 L541.16 1383.20 L652.41 1383.44 L763.66 1377.50 L874.79 1361.79 L986.04 1296.07 L1097.29 1248.68 L1208.42 1159.82" stroke-linejoin="round" style="fill:none;stroke:#90353B;stroke-width:6.91"/>
	<path d=" M1601.45 1381.84 L1712.58 1379.36 L1823.83 1372.18 L1935.08 1342.36 L2046.21 1290.51 L2157.46 1214.15 L2268.71 1150.29 L2379.96 1110.81 L2491.09 1074.68 L2602.34 1044.98" stroke-linejoin="round" style="fill:none;stroke:#1A476F;stroke-width:6.91"/>
	<path d=" M1601.45 1385.67 L1712.58 1375.28 L1823.83 1358.69 L1935.08 1335.55 L2046.21 1266.62 L2157.46 1192.86 L2268.71 1144.85 L2379.96 1098.56" stroke-linejoin="round" style="fill:none;stroke:#90353B;stroke-width:6.91"/>
	<path d=" M2772.87 1265.26 L2883.99 1187.29 L2995.24 1139.40 L3106.50 1093.61 L3217.75 1070.22 L3328.88 1045.72 L3440.13 1026.04 L3551.38 1019.98 L3662.51 1013.54 L3773.76 1010.33" stroke-linejoin="round" style="fill:none;stroke:#1A476F;stroke-width:6.91"/>
	<path d=" M2772.87 1347.43 L2883.99 1294.22 L2995.24 1213.90 L3106.50 1154.99 L3217.75 1124.55 L3328.88 1060.20 L3440.13 1021.09 L3551.38 1014.29" stroke-linejoin="round" style="fill:none;stroke:#90353B;stroke-width:6.91"/>
	<path d=" M429.91 2053.08 L541.16 2037.73 L652.41 2018.43 L763.66 1967.07 L874.79 1902.72 L986.04 1862.50 L1097.29 1801.86 L1208.42 1768.44 L1319.67 1733.05 L1430.92 1718.20" stroke-linejoin="round" style="fill:none;stroke:#1A476F;stroke-width:6.91"/>
	<path d=" M429.91 2060.75 L541.16 2050.97 L652.41 2037.73 L763.66 1988.35 L874.79 1937.12 L986.04 1879.82 L1097.29 1811.63 L1208.42 1769.93" stroke-linejoin="round" style="fill:none;stroke:#90353B;stroke-width:6.91"/>
	<path d=" M1601.45 2069.54 L1712.58 2064.71 L1823.83 2047.38 L1935.08 2005.56 L2046.21 1948.88 L2157.46 1862.12 L2268.71 1792.57 L2379.96 1754.71 L2491.09 1733.92 L2602.34 1718.57" stroke-linejoin="round" style="fill:none;stroke:#1A476F;stroke-width:6.91"/>
	<path d=" M1601.45 2070.77 L1712.58 2063.97 L1823.83 2051.84 L1935.08 2007.54 L2046.21 1924.00 L2157.46 1859.15 L2268.71 1789.48 L2379.96 1741.71" stroke-linejoin="round" style="fill:none;stroke:#90353B;stroke-width:6.91"/>
	<path d=" M2772.87 2070.28 L2883.99 2068.67 L2995.24 2066.69 L3106.50 2057.41 L3217.75 2016.45 L3328.88 1950.98 L3440.13 1885.39 L3551.38 1834.40 L3662.51 1794.93 L3773.76 1763.99" stroke-linejoin="round" style="fill:none;stroke:#1A476F;stroke-width:6.91"/>
	<path d=" M2772.87 2069.29 L2883.99 2068.92 L2995.24 2064.21 L3106.50 2053.82 L3217.75 2015.95 L3328.88 1955.56 L3440.13 1884.52 L3551.38 1828.46" stroke-linejoin="round" style="fill:none;stroke:#90353B;stroke-width:6.91"/>
	<line x1="379.29" y1="754.40" x2="379.29" y2="250.97" style="stroke:#000000;stroke-width:4.61"/>
	<line x1="379.29" y1="703.66" x2="347.37" y2="703.66" style="stroke:#000000;stroke-width:4.61"/>
	<text x="307.36" y="703.66" style="font-family:'Helvetica';font-size:79.94px;fill:#000000" transform="rotate(-90 307.36,703.66)" text-anchor="middle">0</text>
	<line x1="379.29" y1="502.69" x2="347.37" y2="502.69" style="stroke:#000000;stroke-width:4.61"/>
	<text x="307.36" y="502.69" style="font-family:'Helvetica';font-size:79.94px;fill:#000000" transform="rotate(-90 307.36,502.69)" text-anchor="middle">50</text>
	<line x1="379.29" y1="301.71" x2="347.37" y2="301.71" style="stroke:#000000;stroke-width:4.61"/>
	<text x="307.36" y="301.71" style="font-family:'Helvetica';font-size:79.94px;fill:#000000" transform="rotate(-90 307.36,301.71)" text-anchor="middle">100</text>
	<line x1="379.29" y1="1442.48" x2="379.29" y2="939.17" style="stroke:#000000;stroke-width:4.61"/>
	<line x1="379.29" y1="1391.74" x2="347.37" y2="1391.74" style="stroke:#000000;stroke-width:4.61"/>
	<text x="307.36" y="1391.74" style="font-family:'Helvetica';font-size:79.94px;fill:#000000" transform="rotate(-90 307.36,1391.74)" text-anchor="middle">0</text>
	<line x1="379.29" y1="1190.76" x2="347.37" y2="1190.76" style="stroke:#000000;stroke-width:4.61"/>
	<text x="307.36" y="1190.76" style="font-family:'Helvetica';font-size:79.94px;fill:#000000" transform="rotate(-90 307.36,1190.76)" text-anchor="middle">50</text>
	<line x1="379.29" y1="989.78" x2="347.37" y2="989.78" style="stroke:#000000;stroke-width:4.61"/>
	<text x="307.36" y="989.78" style="font-family:'Helvetica';font-size:79.94px;fill:#000000" transform="rotate(-90 307.36,989.78)" text-anchor="middle">100</text>
	<line x1="379.29" y1="2130.55" x2="379.29" y2="1627.24" style="stroke:#000000;stroke-width:4.61"/>
	<line x1="379.29" y1="2079.93" x2="347.37" y2="2079.93" style="stroke:#000000;stroke-width:4.61"/>
	<text x="307.36" y="2079.93" style="font-family:'Helvetica';font-size:79.94px;fill:#000000" transform="rotate(-90 307.36,2079.93)" text-anchor="middle">0</text>
	<line x1="379.29" y1="1878.95" x2="347.37" y2="1878.95" style="stroke:#000000;stroke-width:4.61"/>
	<text x="307.36" y="1878.95" style="font-family:'Helvetica';font-size:79.94px;fill:#000000" transform="rotate(-90 307.36,1878.95)" text-anchor="middle">50</text>
	<line x1="379.29" y1="1677.98" x2="347.37" y2="1677.98" style="stroke:#000000;stroke-width:4.61"/>
	<text x="307.36" y="1677.98" style="font-family:'Helvetica';font-size:79.94px;fill:#000000" transform="rotate(-90 307.36,1677.98)" text-anchor="middle">100</text>
	<line x1="379.29" y1="2130.55" x2="1481.66" y2="2130.55" style="stroke:#000000;stroke-width:4.61"/>
	<line x1="430.03" y1="2130.55" x2="430.03" y2="2162.60" style="stroke:#000000;stroke-width:4.61"/>
	<text x="430.03" y="2234.46" style="font-family:'Helvetica';font-size:79.94px;fill:#000000" text-anchor="middle">47</text>
	<line x1="541.28" y1="2130.55" x2="541.28" y2="2162.60" style="stroke:#000000;stroke-width:4.61"/>
	<text x="541.28" y="2234.46" style="font-family:'Helvetica';font-size:79.94px;fill:#000000" text-anchor="middle">48</text>
	<line x1="652.41" y1="2130.55" x2="652.41" y2="2162.60" style="stroke:#000000;stroke-width:4.61"/>
	<text x="652.41" y="2234.46" style="font-family:'Helvetica';font-size:79.94px;fill:#000000" text-anchor="middle">49</text>
	<line x1="763.66" y1="2130.55" x2="763.66" y2="2162.60" style="stroke:#000000;stroke-width:4.61"/>
	<text x="763.66" y="2234.46" style="font-family:'Helvetica';font-size:79.94px;fill:#000000" text-anchor="middle">50</text>
	<line x1="874.91" y1="2130.55" x2="874.91" y2="2162.60" style="stroke:#000000;stroke-width:4.61"/>
	<text x="874.91" y="2234.46" style="font-family:'Helvetica';font-size:79.94px;fill:#000000" text-anchor="middle">51</text>
	<line x1="986.16" y1="2130.55" x2="986.16" y2="2162.60" style="stroke:#000000;stroke-width:4.61"/>
	<text x="986.16" y="2234.46" style="font-family:'Helvetica';font-size:79.94px;fill:#000000" text-anchor="middle">52</text>
	<line x1="1097.29" y1="2130.55" x2="1097.29" y2="2162.60" style="stroke:#000000;stroke-width:4.61"/>
	<text x="1097.29" y="2234.46" style="font-family:'Helvetica';font-size:79.94px;fill:#000000" text-anchor="middle">53</text>
	<line x1="1208.54" y1="2130.55" x2="1208.54" y2="2162.60" style="stroke:#000000;stroke-width:4.61"/>
	<text x="1208.54" y="2234.46" style="font-family:'Helvetica';font-size:79.94px;fill:#000000" text-anchor="middle">1</text>
	<line x1="1319.79" y1="2130.55" x2="1319.79" y2="2162.60" style="stroke:#000000;stroke-width:4.61"/>
	<text x="1319.79" y="2234.46" style="font-family:'Helvetica';font-size:79.94px;fill:#000000" text-anchor="middle">2</text>
	<line x1="1430.92" y1="2130.55" x2="1430.92" y2="2162.60" style="stroke:#000000;stroke-width:4.61"/>
	<text x="1430.92" y="2234.46" style="font-family:'Helvetica';font-size:79.94px;fill:#000000" text-anchor="middle">3</text>
	<line x1="1550.84" y1="2130.55" x2="2653.08" y2="2130.55" style="stroke:#000000;stroke-width:4.61"/>
	<line x1="1601.45" y1="2130.55" x2="1601.45" y2="2162.60" style="stroke:#000000;stroke-width:4.61"/>
	<text x="1601.45" y="2234.46" style="font-family:'Helvetica';font-size:79.94px;fill:#000000" text-anchor="middle">47</text>
	<line x1="1712.70" y1="2130.55" x2="1712.70" y2="2162.60" style="stroke:#000000;stroke-width:4.61"/>
	<text x="1712.70" y="2234.46" style="font-family:'Helvetica';font-size:79.94px;fill:#000000" text-anchor="middle">48</text>
	<line x1="1823.95" y1="2130.55" x2="1823.95" y2="2162.60" style="stroke:#000000;stroke-width:4.61"/>
	<text x="1823.95" y="2234.46" style="font-family:'Helvetica';font-size:79.94px;fill:#000000" text-anchor="middle">49</text>
	<line x1="1935.08" y1="2130.55" x2="1935.08" y2="2162.60" style="stroke:#000000;stroke-width:4.61"/>
	<text x="1935.08" y="2234.46" style="font-family:'Helvetica';font-size:79.94px;fill:#000000" text-anchor="middle">50</text>
	<line x1="2046.33" y1="2130.55" x2="2046.33" y2="2162.60" style="stroke:#000000;stroke-width:4.61"/>
	<text x="2046.33" y="2234.46" style="font-family:'Helvetica';font-size:79.94px;fill:#000000" text-anchor="middle">51</text>
	<line x1="2157.58" y1="2130.55" x2="2157.58" y2="2162.60" style="stroke:#000000;stroke-width:4.61"/>
	<text x="2157.58" y="2234.46" style="font-family:'Helvetica';font-size:79.94px;fill:#000000" text-anchor="middle">52</text>
	<line x1="2268.71" y1="2130.55" x2="2268.71" y2="2162.60" style="stroke:#000000;stroke-width:4.61"/>
	<text x="2268.71" y="2234.46" style="font-family:'Helvetica';font-size:79.94px;fill:#000000" text-anchor="middle">53</text>
	<line x1="2379.96" y1="2130.55" x2="2379.96" y2="2162.60" style="stroke:#000000;stroke-width:4.61"/>
	<text x="2379.96" y="2234.46" style="font-family:'Helvetica';font-size:79.94px;fill:#000000" text-anchor="middle">1</text>
	<line x1="2491.21" y1="2130.55" x2="2491.21" y2="2162.60" style="stroke:#000000;stroke-width:4.61"/>
	<text x="2491.21" y="2234.46" style="font-family:'Helvetica';font-size:79.94px;fill:#000000" text-anchor="middle">2</text>
	<line x1="2602.46" y1="2130.55" x2="2602.46" y2="2162.60" style="stroke:#000000;stroke-width:4.61"/>
	<text x="2602.46" y="2234.46" style="font-family:'Helvetica';font-size:79.94px;fill:#000000" text-anchor="middle">3</text>
	<line x1="2722.25" y1="2130.55" x2="3824.49" y2="2130.55" style="stroke:#000000;stroke-width:4.61"/>
	<line x1="2772.87" y1="2130.55" x2="2772.87" y2="2162.60" style="stroke:#000000;stroke-width:4.61"/>
	<text x="2772.87" y="2234.46" style="font-family:'Helvetica';font-size:79.94px;fill:#000000" text-anchor="middle">47</text>
	<line x1="2884.12" y1="2130.55" x2="2884.12" y2="2162.60" style="stroke:#000000;stroke-width:4.61"/>
	<text x="2884.12" y="2234.46" style="font-family:'Helvetica';font-size:79.94px;fill:#000000" text-anchor="middle">48</text>
	<line x1="2995.37" y1="2130.55" x2="2995.37" y2="2162.60" style="stroke:#000000;stroke-width:4.61"/>
	<text x="2995.37" y="2234.46" style="font-family:'Helvetica';font-size:79.94px;fill:#000000" text-anchor="middle">49</text>
	<line x1="3106.50" y1="2130.55" x2="3106.50" y2="2162.60" style="stroke:#000000;stroke-width:4.61"/>
	<text x="3106.50" y="2234.46" style="font-family:'Helvetica';font-size:79.94px;fill:#000000" text-anchor="middle">50</text>
	<line x1="3217.75" y1="2130.55" x2="3217.75" y2="2162.60" style="stroke:#000000;stroke-width:4.61"/>
	<text x="3217.75" y="2234.46" style="font-family:'Helvetica';font-size:79.94px;fill:#000000" text-anchor="middle">51</text>
	<line x1="3329.00" y1="2130.55" x2="3329.00" y2="2162.60" style="stroke:#000000;stroke-width:4.61"/>
	<text x="3329.00" y="2234.46" style="font-family:'Helvetica';font-size:79.94px;fill:#000000" text-anchor="middle">52</text>
	<line x1="3440.13" y1="2130.55" x2="3440.13" y2="2162.60" style="stroke:#000000;stroke-width:4.61"/>
	<text x="3440.13" y="2234.46" style="font-family:'Helvetica';font-size:79.94px;fill:#000000" text-anchor="middle">53</text>
	<line x1="3551.38" y1="2130.55" x2="3551.38" y2="2162.60" style="stroke:#000000;stroke-width:4.61"/>
	<text x="3551.38" y="2234.46" style="font-family:'Helvetica';font-size:79.94px;fill:#000000" text-anchor="middle">1</text>
	<line x1="3662.63" y1="2130.55" x2="3662.63" y2="2162.60" style="stroke:#000000;stroke-width:4.61"/>
	<text x="3662.63" y="2234.46" style="font-family:'Helvetica';font-size:79.94px;fill:#000000" text-anchor="middle">2</text>
	<line x1="3773.88" y1="2130.55" x2="3773.88" y2="2162.60" style="stroke:#000000;stroke-width:4.61"/>
	<text x="3773.88" y="2234.46" style="font-family:'Helvetica';font-size:79.94px;fill:#000000" text-anchor="middle">3</text>
	<rect x="379.29" y="135.39" width="1102.37" height="115.59" style="fill:#D9E6EB"/>
	<rect x="381.60" y="137.69" width="1097.76" height="110.98" style="fill:none;stroke:#D9E6EB;stroke-width:4.61"/>
	<text x="930.48" y="210.78" style="font-family:'Helvetica';font-size:87.99px;fill:#000000" text-anchor="middle">East</text>
	<rect x="1550.84" y="135.39" width="1102.24" height="115.59" style="fill:#D9E6EB"/>
	<rect x="1553.14" y="137.69" width="1097.63" height="110.98" style="fill:none;stroke:#D9E6EB;stroke-width:4.61"/>
	<text x="2101.89" y="210.78" style="font-family:'Helvetica';font-size:87.99px;fill:#000000" text-anchor="middle">East Midlands</text>
	<rect x="2722.25" y="135.39" width="1102.24" height="115.59" style="fill:#D9E6EB"/>
	<rect x="2724.56" y="137.69" width="1097.63" height="110.98" style="fill:none;stroke:#D9E6EB;stroke-width:4.61"/>
	<text x="3273.31" y="210.78" style="font-family:'Helvetica';font-size:87.99px;fill:#000000" text-anchor="middle">London</text>
	<rect x="379.29" y="823.46" width="1102.37" height="115.71" style="fill:#D9E6EB"/>
	<rect x="381.60" y="825.76" width="1097.76" height="111.10" style="fill:none;stroke:#D9E6EB;stroke-width:4.61"/>
	<text x="930.48" y="898.85" style="font-family:'Helvetica';font-size:87.99px;fill:#000000" text-anchor="middle">North East</text>
	<rect x="1550.84" y="823.46" width="1102.24" height="115.71" style="fill:#D9E6EB"/>
	<rect x="1553.14" y="825.76" width="1097.63" height="111.10" style="fill:none;stroke:#D9E6EB;stroke-width:4.61"/>
	<text x="2101.89" y="898.85" style="font-family:'Helvetica';font-size:87.99px;fill:#000000" text-anchor="middle">North West</text>
	<rect x="2722.25" y="823.46" width="1102.24" height="115.71" style="fill:#D9E6EB"/>
	<rect x="2724.56" y="825.76" width="1097.63" height="111.10" style="fill:none;stroke:#D9E6EB;stroke-width:4.61"/>
	<text x="3273.31" y="898.85" style="font-family:'Helvetica';font-size:87.99px;fill:#000000" text-anchor="middle">South East</text>
	<rect x="379.29" y="1511.65" width="1102.37" height="115.59" style="fill:#D9E6EB"/>
	<rect x="381.60" y="1513.96" width="1097.76" height="110.98" style="fill:none;stroke:#D9E6EB;stroke-width:4.61"/>
	<text x="930.48" y="1586.92" style="font-family:'Helvetica';font-size:87.99px;fill:#000000" text-anchor="middle">South West</text>
	<rect x="1550.84" y="1511.65" width="1102.24" height="115.59" style="fill:#D9E6EB"/>
	<rect x="1553.14" y="1513.96" width="1097.63" height="110.98" style="fill:none;stroke:#D9E6EB;stroke-width:4.61"/>
	<text x="2101.89" y="1586.92" style="font-family:'Helvetica';font-size:87.99px;fill:#000000" text-anchor="middle">West Midlands</text>
	<rect x="2722.25" y="1511.65" width="1102.24" height="115.59" style="fill:#D9E6EB"/>
	<rect x="2724.56" y="1513.96" width="1097.63" height="110.98" style="fill:none;stroke:#D9E6EB;stroke-width:4.61"/>
	<text x="3273.31" y="1586.92" style="font-family:'Helvetica';font-size:87.99px;fill:#000000" text-anchor="middle">Yorkshire and the Humber</text>
	<rect x="1275.49" y="2443.64" width="1508.88" height="186.50" style="fill:#FFFFFF"/>
	<rect x="1278.37" y="2446.52" width="1503.12" height="180.74" style="fill:none;stroke:#000000;stroke-width:5.76"/>
	<line x1="1318.68" y1="2536.95" x2="1693.15" y2="2536.95" style="stroke:#1A476F;stroke-width:8.64"/>
	<line x1="2104.12" y1="2536.95" x2="2478.47" y2="2536.95" style="stroke:#90353B;stroke-width:8.64"/>
	<text x="1753.04" y="2571.98" style="font-family:'Helvetica';font-size:99.99px;fill:#000000">PHE</text>
	<text x="2538.48" y="2571.98" style="font-family:'Helvetica';font-size:99.99px;fill:#000000">TPP</text>
	<text x="170.79" y="1204.99" style="font-family:'Helvetica';font-size:99.99px;fill:#000000" transform="rotate(-90 170.79,1204.99)" text-anchor="middle">% of positive tests with SGTF</text>
	<text x="2029.99" y="2379.06" style="font-family:'Helvetica';font-size:99.99px;fill:#000000" text-anchor="middle">Epidemiological week of study</text>
	<text x="218.05" y="2737.89" style="font-family:'Helvetica';font-size:79.94px;fill:#000000">Graphs by NHS England region</text>
</svg>
